<svg width="26" height="26" viewBox="0 0 26 26" fill="none" xmlns="http://www.w3.org/2000/svg">
<g clip-path="url(#clip0_2_138)">
<rect width="26" height="26" fill="#09B3B0"/>
<path d="M25.4583 7.04923C25.3111 6.52406 25.0243 6.04861 24.6284 5.6734C24.2214 5.28665 23.7226 5.01 23.1789 4.86956C21.1444 4.33331 12.9934 4.33331 12.9934 4.33331C9.59538 4.29465 6.19815 4.46469 2.82094 4.84248C2.27731 4.99329 1.77938 5.27612 1.37144 5.66581C0.970603 6.05148 0.68027 6.52706 0.528603 7.04815C0.16427 9.01087 -0.0127475 11.0038 -6.38066e-05 13C-0.0130638 14.9944 0.16352 16.9866 0.528603 18.9518C0.67702 19.4707 0.96627 19.9441 1.36819 20.3266C1.7701 20.709 2.2706 20.9852 2.82094 21.1315C4.88252 21.6666 12.9934 21.6666 12.9934 21.6666C16.3958 21.7054 19.7974 21.5353 23.1789 21.1575C23.7226 21.017 24.2214 20.7404 24.6284 20.3536C25.0293 19.9712 25.3142 19.4956 25.4572 18.9778C25.831 17.0158 26.0128 15.0221 25.9999 13.0249C26.0281 11.0192 25.8465 9.01609 25.4583 7.04815V7.04923ZM10.4021 16.7093V9.29173L17.1838 13.0011L10.4021 16.7093Z" fill="#F8F8F8"/>
</g>
<defs>
<clipPath id="clip0_2_138">
<rect width="26" height="26" fill="white"/>
</clipPath>
</defs>
</svg>
